REM MD5 e8fa88ad55a8681dc1a16c88337eab0f
FILE "Euro Demo 88 (Europe).bin" BINARY
  TRACK 01 MODE2/2352
    INDEX 01 00:00:00
  TRACK 02 AUDIO
    INDEX 00 49:40:61
    INDEX 01 49:42:61
  TRACK 03 AUDIO
    INDEX 00 51:08:05
    INDEX 01 51:10:05
  TRACK 04 AUDIO
    INDEX 00 52:11:45
    INDEX 01 52:13:45
  TRACK 05 AUDIO
    INDEX 00 53:14:43
    INDEX 01 53:16:43
REM LEADOUT 56:18:00
